<svg version="1.1" viewBox="0.0 0.0 925.8713910761155 461.6981627296588" fill="currentColor" stroke="none" stroke-linecap="square" stroke-miterlimit="10" xmlns:xlink="http://www.w3.org/1999/xlink" xmlns="http://www.w3.org/2000/svg">
    <clipPath id="p.0">
        <path d="m0 0l925.8714 0l0 461.69815l-925.8714 0l0 -461.69815z" clip-rule="nonzero" />
    </clipPath>
    <g clip-path="url(#p.0)">
        <path fill="currentColor" fill-opacity="0.0" d="m0 0l925.8714 0l0 461.69815l-925.8714 0z" fill-rule="evenodd" />
        <path fill="currentColor" fill-opacity="0.0" d="m13.18766 64.408134l899.49603 0l0 332.8819l-899.49603 0z" fill-rule="evenodd" />
        <path fill="currentColor" d="m100.265785 311.24377q-8.796875 12.078125 -28.484375 12.078125q-19.671875 0 -28.484375 -12.078125q-8.796875 -12.078125 -8.796875 -37.671875l0 -15.6875q0 -25.59375 8.796875 -37.671875q8.8125 -12.078125 28.484375 -12.078125q19.6875 0 28.484375 12.078125q8.796875 12.078125 8.796875 37.671875l0 15.6875q0 25.59375 -8.796875 37.671875zm-15.046875 -96.3125q-5.59375 -2.0 -13.4375 -2.0q-7.828125 0 -13.4375 2.0q-5.59375 2.0 -10.078125 6.796875q-4.484375 4.796875 -6.71875 13.84375q-2.234375 9.03125 -2.234375 22.3125l0 15.6875q0 13.28125 2.234375 22.328125q2.234375 9.03125 6.71875 13.828125q4.484375 4.796875 10.078125 6.796875q5.609375 2.0 13.4375 2.0q7.84375 0 13.4375 -2.0q5.609375 -2.0 10.078125 -6.796875q4.484375 -4.796875 6.71875 -13.828125q2.25 -9.046875 2.25 -22.328125l0 -15.6875q0 -13.28125 -2.25 -22.3125q-2.234375 -9.046875 -6.71875 -13.84375q-4.46875 -4.796875 -10.078125 -6.796875zm91.0438 72.234375l-2.390625 -4.15625l8.953125 -5.125q11.046875 -6.078125 11.046875 -19.359375q0 -24.796875 -37.765625 -24.796875l-14.71875 0l0 120.0l-4.796875 0l0 -124.796875l19.515625 0q21.125 0 31.84375 7.765625q10.71875 7.75 10.71875 21.828125q0 16.0 -13.4375 23.515625l-8.96875 5.125zm107.04628 25.125q-8.796875 11.03125 -28.79686 11.03125q-20.0 0 -28.640625 -11.359375q-8.640625 -11.359375 -8.640625 -36.640625q0 -25.28125 8.640625 -36.640625q8.640625 -11.359375 28.640625 -11.359375q23.20311 0 31.51561 15.203125l-39.20311 32.796875l-7.515625 0l40.48436 -33.75q-7.046875 -9.4375 -25.281235 -9.4375q-8.0 0 -13.453125 1.6875q-5.4375 1.671875 -10.0 6.234375q-4.546875 4.546875 -6.796875 13.265625q-2.234375 8.71875 -2.234375 22.0q0 13.28125 2.234375 22.0q2.25 8.71875 6.796875 13.28125q4.5625 4.5625 10.0 6.25q5.453125 1.671875 13.453125 1.671875q18.23436 0 25.281235 -9.4375l3.515625 3.203125zm25.601929 9.4375l0 -92.796875l4.796875 0l52.15625 84.0l0 -84.0l4.796875 0l0 92.796875l-4.796875 0l-52.15625 -84.15625l0 84.15625l-4.796875 0z" fill-rule="nonzero" />
        <path fill="currentColor" d="m504.33658 227.05627l-76.828125 0l79.15625 -78.625l-87.4375 0l0 173.29688l-7.75 0l0 -181.0625l114.06253 0l-79.140656 78.640625l57.9375 0l0 7.75z" fill-rule="nonzero" />
        <path fill="currentColor" d="m596.7694 316.93127l0 4.796875l-53.4375 0l0 -92.796875l4.796875 0l0 88.0l48.640625 0zm26.886902 0l52.15625 0l-32.796875 -77.28125l-34.890625 82.078125l-5.109375 0l40.0 -94.40625l40.0 94.40625l-59.359375 0l0 -4.796875zm114.87695 -57.609375l21.28125 -17.75q-7.046875 -9.4375 -25.28125 -9.4375q-8.0 0 -13.453125 1.6875q-5.4375 1.671875 -10.0 6.234375q-4.546875 4.546875 -6.796875 13.265625q-2.234375 8.71875 -2.234375 22.0q0 13.28125 2.234375 22.0q2.25 8.71875 6.796875 13.28125q4.5625 4.5625 10.0 6.25q5.453125 1.671875 13.453125 1.671875q18.078125 0 25.109375 -9.28125l0 -28.3125l4.8125 0l0 42.234375q0 30.5625 -28.0 30.5625l-18.71875 0l0 -4.796875l18.71875 0q12.0 0 17.59375 -6.328125q5.59375 -6.3125 5.59375 -24.078125l0 -2.390625q-8.640625 7.1875 -25.109375 7.1875q-20.0 0 -28.640625 -11.359375q-8.640625 -11.359375 -8.640625 -36.640625q0 -25.28125 8.640625 -36.640625q8.640625 -11.359375 28.640625 -11.359375q23.203125 0 31.515625 15.203125l-20.0 16.796875l-7.515625 0zm92.95001 15.84375l21.765625 46.5625l-5.28125 0l-22.40625 -48.0q0.328125 -0.15625 2.796875 -1.359375q2.484375 -1.203125 3.4375 -1.765625q0.96875 -0.5625 3.203125 -2.0q2.25 -1.4375 3.359375 -2.796875q1.125 -1.359375 2.484375 -3.1875q1.359375 -1.84375 2.0 -4.15625q0.640625 -2.328125 0.640625 -5.046875q0 -10.09375 -9.59375 -14.890625q-9.59375 -4.796875 -23.84375 -4.796875l-12.796875 0l0 88.0l-4.796875 0l0 -92.796875l17.59375 0q18.890625 0 28.5625 6.5625q9.6875 6.546875 9.6875 17.921875q0 7.359375 -4.96875 13.046875q-4.953125 5.671875 -11.84375 8.703125z" fill-rule="nonzero" />
    </g>
</svg>